<?xml version="1.0" encoding="utf-8"?>
<!-- Generator: Adobe Illustrator 15.0.0, SVG Export Plug-In  -->
<!DOCTYPE svg PUBLIC "-//W3C//DTD SVG 1.1//EN" "http://www.w3.org/Graphics/SVG/1.1/DTD/svg11.dtd" [
	<!ENTITY ns_flows "http://ns.adobe.com/Flows/1.0/">
]>
<svg version="1.1"
	 xmlns="http://www.w3.org/2000/svg" xmlns:xlink="http://www.w3.org/1999/xlink" xmlns:a="http://ns.adobe.com/AdobeSVGViewerExtensions/3.0/"
	 x="0px" y="0px" width="16px" height="16px" viewBox="0 0.001 16 16" enable-background="new 0 0.001 16 16" xml:space="preserve">
<defs>
</defs>
<path d="M8,14c-1.534,0-2.912-0.641-3.909-1.657l1.626-1.612c0.391-0.393,0.391-1.024,0-1.416C5.52,9.119,5.259,9.021,5,9.023
	L1.023,9c-0.555,0.002-1,0.447-1,1L0,14c0,0.256,0.098,0.512,0.293,0.707c0.393,0.391,1.023,0.391,1.414,0l0.958-0.949
	C4.024,15.138,5.909,16,8,16c3.805,0,6.939-2.834,7.427-6.506l-2.02-0.009C12.939,12.049,10.695,14,8,14z"/>
<path d="M15.707,1.293c-0.393-0.391-1.023-0.391-1.414,0l-1.485,1.473C11.505,1.671,9.834,1,8,1C4.195,1,1.061,3.836,0.573,7.508
	l2.02,0.01C3.059,4.953,5.305,3,8,3c1.278,0,2.45,0.444,3.384,1.178L10.283,5.27c-0.391,0.393-0.391,1.023,0,1.415
	C10.48,6.881,10.741,6.979,11,6.976L14.977,7c0.555-0.002,1-0.447,1-1L16,2C16,1.744,15.902,1.488,15.707,1.293z"/>
<rect display="none" opacity="0.2" fill="#E94E47" width="16" height="16"/>
</svg>
